<?xml version="1.0" standalone="no"?>
<!DOCTYPE svg PUBLIC "-//W3C//DTD SVG 20010904//EN"
 "http://www.w3.org/TR/2001/REC-SVG-20010904/DTD/svg10.dtd">
<svg version="1.0" xmlns="http://www.w3.org/2000/svg"
 width="300.000000pt" height="300.000000pt" viewBox="0 0 300.000000 300.000000"
 preserveAspectRatio="xMidYMid meet">
<metadata>
Created by potrace 1.11, written by Peter Selinger 2001-2013
</metadata>
<g transform="translate(0.000000,300.000000) scale(0.100000,-0.100000)"
fill="#000000" stroke="none">
<path d="M1340 2869 c-462 -55 -869 -342 -1070 -754 -101 -207 -140 -365 -145
-580 -3 -131 15 -304 38 -365 11 -31 31 -115 29 -122 -1 -5 2 -8 8 -8 5 0 10
-8 10 -17 0 -9 18 -54 40 -99 22 -46 40 -88 40 -93 0 -6 5 -11 10 -11 6 0 10
-5 10 -10 0 -12 41 -73 53 -78 4 -2 7 -10 7 -18 0 -8 5 -14 11 -14 6 0 8 -7 5
-16 -3 -8 -2 -12 4 -9 5 3 14 -4 20 -15 17 -32 117 -136 190 -198 36 -31 64
-59 62 -64 -1 -4 1 -7 5 -7 18 3 30 -2 49 -19 37 -34 215 -130 282 -151 23 -8
42 -17 42 -20 0 -4 8 -7 18 -7 9 -1 44 -9 77 -18 59 -16 118 -28 143 -29 6 0
12 -3 12 -6 0 -3 44 -8 98 -9 59 -3 100 -8 104 -15 5 -8 8 -9 8 -1 0 7 25 12
62 13 65 2 128 10 141 18 4 2 7 -1 7 -6 0 -8 6 -8 18 -1 19 11 175 51 209 53
11 1 19 5 16 10 -2 4 3 7 11 7 8 0 49 16 90 36 43 20 81 32 88 28 7 -4 10 -4
6 1 -5 5 1 15 12 22 18 12 24 13 38 1 15 -11 16 -11 4 3 -11 15 -9 19 18 30
16 8 30 18 30 23 0 4 7 6 15 2 9 -3 15 0 15 9 0 8 4 15 9 15 4 0 31 18 58 40
28 22 54 36 58 32 5 -4 5 -2 2 4 -8 14 17 37 28 26 5 -4 5 -2 2 4 -3 6 3 18
14 27 22 20 33 22 23 5 -4 -7 -3 -8 5 -4 6 4 9 11 6 16 -8 13 26 50 38 43 6
-3 7 -2 4 4 -8 13 39 66 52 58 6 -3 8 0 5 8 -4 13 35 70 61 89 5 4 7 8 2 8 -4
0 5 18 19 40 15 22 31 37 37 33 6 -3 7 -1 3 6 -4 6 8 44 27 84 103 212 138
375 133 622 -4 188 -7 211 -47 352 -84 299 -282 575 -542 757 -144 100 -326
178 -507 216 -114 23 -315 32 -430 19z"/>
<path d="M836 262 c-3 -5 1 -9 9 -9 8 0 12 4 9 9 -3 4 -7 8 -9 8 -2 0 -6 -4
-9 -8z"/>
</g>
</svg>
